<svg width="160" height="253" fill="none" xmlns="http://www.w3.org/2000/svg"><path fill="#FFE17F" d="M0 0h160v160H0z"/><path d="M5.89 211.1c-.87 0-1.64-.11-2.3-.35a5.41 5.41 0 0 1-1.75-1.05c-.5-.45-.92-.97-1.28-1.54L3 206.72c.19.36.42.67.7.93.27.27.6.47.97.61.37.15.78.22 1.22.22.56 0 1.04-.1 1.44-.29.42-.19.78-.46 1.07-.8.28-.36.5-.75.64-1.2.15-.45.23-.94.24-1.45l1.17.79H4.88v-2.1h5.52l-1.13.75c-.02-.47-.11-.9-.27-1.32a3.33 3.33 0 0 0-1.7-1.81c-.4-.18-.87-.27-1.4-.27-.44 0-.85.07-1.22.21-.37.15-.7.35-.97.61-.28.27-.5.59-.69.96L.7 200.92a6.65 6.65 0 0 1 2.05-2 5.94 5.94 0 0 1 3.19-.77c1 0 1.9.18 2.7.54.8.36 1.46.84 2 1.46a6.86 6.86 0 0 1-.07 9.04 6.15 6.15 0 0 1-4.68 1.92Zm7.47-.1v-9.45h2.86v3.38h.68l2.34-3.38h3.1l-3.24 4.54 3.58 4.91h-3.3l-2.53-3.56h-.63V211h-2.86Zm10.41 0v-9.45h2.88v6.95h2.61v-6.95h2.88v6.95h2.61v-6.95h2.88V211H23.77Zm15.52 0v-9.45h2.88v3.42h3.22v-3.42h2.88V211h-2.88v-3.65h-3.22V211h-2.88Zm10.6-3.65v-2.6h5.55v2.6h-5.55Zm7.17 3.65v-9.45h2.86v3.38h.68l2.34-3.38h3.1l-3.24 4.54 3.58 4.91h-3.3l-2.53-3.56h-.63V211h-2.86Zm9.66-2.83c0-.62.17-1.17.52-1.63.35-.47.83-.84 1.44-1.1a5.07 5.07 0 0 1 2.1-.42 5.95 5.95 0 0 1 2.11.38V205c0-.52-.15-.91-.46-1.19-.32-.28-.79-.41-1.43-.41-.52 0-1.02.09-1.49.27-.46.18-.94.43-1.46.77l-.86-1.84a7.52 7.52 0 0 1 4.1-1.22c1.42 0 2.52.34 3.3 1.03.79.67 1.18 1.65 1.18 2.93v2.47c0 .28.05.49.13.6.1.12.26.18.49.2v2.4a8 8 0 0 1-1.23.14c-.54 0-.95-.1-1.24-.32a1.42 1.42 0 0 1-.52-.88l-.06-.42a4.16 4.16 0 0 1-3.33 1.66 3.6 3.6 0 0 1-1.69-.4c-.49-.26-.88-.62-1.17-1.08a2.8 2.8 0 0 1-.43-1.53Zm5.72.36c.14-.1.24-.22.33-.36a.7.7 0 0 0 .12-.37v-.85a3.8 3.8 0 0 0-.8-.22 3.98 3.98 0 0 0-.82-.09c-.52 0-.96.12-1.31.36-.35.23-.52.54-.52.92 0 .22.06.42.18.6s.28.32.48.43c.22.1.47.16.76.16a2.45 2.45 0 0 0 1.58-.58Zm5.08 2.47v-9.45h3l2.67 5.06 2.66-5.06h3V211H86.1v-5.53l-2.04 3.87H82.3l-2.03-3.87V211h-2.74Zm17.48.18a4.98 4.98 0 0 1-3.74-1.44 4.6 4.6 0 0 1-1-1.53 5.2 5.2 0 0 1 .25-4.32 4.7 4.7 0 0 1 1.75-1.82 5.1 5.1 0 0 1 2.74-.7 5.1 5.1 0 0 1 2.72.68 4.6 4.6 0 0 1 1.73 1.8 4.95 4.95 0 0 1 .52 3.32h-6.98c.03.42.15.77.34 1.06a2.07 2.07 0 0 0 1.76.88c.43 0 .83-.1 1.2-.3.4-.21.66-.49.8-.83l2.45.68c-.24.5-.58.93-1.03 1.31-.43.38-.95.67-1.55.89-.58.21-1.24.32-1.96.32Zm-2.09-5.78h4.1c-.04-.4-.15-.74-.34-1.02a2 2 0 0 0-1.71-.94c-.37 0-.7.08-1 .25-.3.16-.52.39-.7.69-.19.28-.3.63-.35 1.02Zm14.05 5.78c-.7 0-1.32-.15-1.85-.45a3.38 3.38 0 0 1-1.24-1.26v5.36h-2.88v-13.28h2.5v1.53c.35-.54.78-.96 1.31-1.26.53-.3 1.15-.45 1.86-.45a4.3 4.3 0 0 1 3.15 1.42c.4.45.7.96.91 1.55a5.88 5.88 0 0 1-.2 4.43 4.32 4.32 0 0 1-1.45 1.76c-.61.43-1.32.65-2.1.65Zm-.97-2.43c.31 0 .6-.07.85-.2a2.37 2.37 0 0 0 1.11-1.35c.11-.31.16-.63.16-.97a2.46 2.46 0 0 0-.64-1.71c-.2-.23-.45-.4-.72-.52a2.23 2.23 0 0 0-1.5-.1 2.41 2.41 0 0 0-1.39 1.2v1.96c.14.32.31.61.53.86.21.25.46.46.74.61.27.15.56.22.86.22Zm6.17 2.25v-9.45h2.88v2.83h1.53c1.14 0 2.01.3 2.63.9.62.58.93 1.36.93 2.32 0 .67-.13 1.26-.4 1.78-.25.52-.62.92-1.13 1.2-.5.28-1.12.42-1.85.42h-4.6Zm2.88-2.18h1.24c.26 0 .48-.05.65-.14.18-.11.31-.25.4-.43a1.55 1.55 0 0 0 0-1.23.98.98 0 0 0-.4-.43c-.17-.1-.4-.16-.67-.16h-1.22v2.4Zm6.51 2.18v-9.45h2.88V211h-2.88Z" fill="#000"/><path d="M97.35 38.49c0-.74-.58-1.49-1.31-1.49H53.05c-.73 0-1.38.75-1.38 1.49v3.52h45.68V38.5ZM98.2 118.8h-9.6v-10.37h-6.95v2.5H62.77a3.49 3.49 0 0 0-3.18-2.15H47.56a3.59 3.59 0 0 0-3.56 3.53v3.02a3.55 3.55 0 0 0 3.56 3.48h12.03c1.51 0 2.8-.9 3.27-2.33h18.79v2.33h-9.52c-.53 0-1.01.44-1.01.97v3.17c0 .54.48 1.05 1.01 1.05H98.2c.53 0 .93-.51.93-1.05v-3.17c0-.53-.4-.97-.93-.97ZM104.67 49.39a7.04 7.04 0 0 0-6.78-5.05H51.15A7.1 7.1 0 0 0 44 51.36v46.9a7.18 7.18 0 0 0 7.15 7.12h46.74c3.9 0 7.13-3.2 7.13-7.12V87.92a23.3 23.3 0 0 0-.36-38.53ZM56.24 99.15a5.91 5.91 0 1 1 .02-11.82 5.91 5.91 0 0 1-.02 11.82Zm5.96-32.6c0 .78-.64 1.42-1.42 1.42h-8.94c-.78 0-1.42-.64-1.42-1.42V52.39c0-.79.64-1.43 1.42-1.43h8.94c.78 0 1.42.64 1.42 1.43v14.16Zm29.56 22.3A20.1 20.1 0 0 1 71.7 68.75 20.1 20.1 0 0 1 91.77 48.6a20.1 20.1 0 0 1 20.06 20.13 20.1 20.1 0 0 1-20.06 20.12Z" fill="#363636"/><path d="M91.76 80.96a12.2 12.2 0 0 0 12.19-12.22A12.2 12.2 0 0 0 91.76 56.5a12.2 12.2 0 0 0-12.19 12.23 12.2 12.2 0 0 0 12.2 12.22ZM75.56 70.17a1.44 1.44 0 1 0 0-2.87 1.44 1.44 0 0 0 0 2.87ZM107.96 70.17a1.43 1.43 0 1 0 0-2.87 1.43 1.43 0 0 0 0 2.87ZM83.1 56.43a1.44 1.44 0 1 0 0-2.87 1.44 1.44 0 0 0 0 2.87ZM100.42 83.91a1.43 1.43 0 1 0-.01-2.86 1.43 1.43 0 0 0 0 2.86ZM99.7 56a1.43 1.43 0 1 0 0-2.87 1.43 1.43 0 0 0 0 2.87ZM83.83 84.34a1.44 1.44 0 1 0 0-2.87 1.44 1.44 0 0 0 0 2.87Z" fill="#363636"/></svg>