<svg width="160" height="253" fill="none" xmlns="http://www.w3.org/2000/svg"><path fill="#FFE17F" d="M0 0h160v160H0z"/><path d="M1.28 211v-12.78H4.2v4.95h1.01l3.56-4.95h3.28l-4.57 6.17 4.97 6.61H8.87l-3.74-5.15h-.92V211H1.28Zm12.13 0v-9.45h5.47c.7 0 1.26.1 1.68.32a2.1 2.1 0 0 1 1.22 1.97c0 .54-.12 1-.36 1.38-.23.39-.6.7-1.1.92.55.16 1 .42 1.35.8.36.35.54.85.54 1.49 0 .62-.15 1.12-.45 1.5-.29.38-.7.65-1.26.82-.54.17-1.2.25-1.96.25h-5.13Zm2.74-1.93h2.3c.18 0 .34-.04.49-.12a.9.9 0 0 0 .48-.85c0-.2-.04-.38-.12-.52a.78.78 0 0 0-.35-.34.95.95 0 0 0-.48-.13h-2.32v1.96Zm0-3.72h2.01c.18 0 .34-.04.49-.13a.8.8 0 0 0 .32-.34c.07-.16.11-.32.11-.5a.85.85 0 0 0-.25-.63.85.85 0 0 0-.65-.27h-2.03v1.87Zm6.71 2.82c0-.62.18-1.17.52-1.63.35-.47.83-.84 1.44-1.1a5.07 5.07 0 0 1 2.11-.42 5.95 5.95 0 0 1 2.1.38V205c0-.52-.15-.91-.46-1.19-.31-.28-.79-.41-1.42-.41-.53 0-1.03.09-1.5.27-.45.18-.94.43-1.46.77l-.86-1.84a7.52 7.52 0 0 1 4.1-1.22c1.42 0 2.52.34 3.3 1.03.79.67 1.19 1.65 1.19 2.93v2.47c0 .28.04.49.12.6.1.12.26.18.49.2v2.4a8 8 0 0 1-1.23.14c-.54 0-.95-.1-1.24-.32a1.42 1.42 0 0 1-.52-.88l-.05-.42a4.16 4.16 0 0 1-3.33 1.66 3.6 3.6 0 0 1-1.7-.4c-.49-.26-.88-.62-1.17-1.08a2.8 2.8 0 0 1-.43-1.53Zm5.73.36c.13-.1.24-.22.32-.36a.7.7 0 0 0 .13-.37v-.85a3.8 3.8 0 0 0-.81-.22 3.98 3.98 0 0 0-.81-.09c-.53 0-.97.12-1.32.36-.35.23-.52.54-.52.92 0 .22.06.42.18.6s.28.32.49.43c.21.1.46.16.75.16a2.45 2.45 0 0 0 1.59-.58Zm4.44 4.8v-4.83h.29c.21 0 .42-.06.63-.16.2-.12.38-.32.54-.6.15-.27.28-.66.38-1.17.1-.5.17-1.14.2-1.92l.12-3.1h7.45v6.95H44v4.82h-2.52V211h-5.92v2.32h-2.52Zm3.78-4.83h2.95v-4.56h-2.05l-.05 1.01c-.04.66-.1 1.23-.17 1.7a4.8 4.8 0 0 1-.27 1.15c-.1.28-.24.52-.41.7Zm14.26 2.68c-.7 0-1.33-.15-1.85-.45a3.38 3.38 0 0 1-1.25-1.26v5.36H45.1v-13.28h2.5v1.53c.35-.54.8-.96 1.32-1.26.53-.3 1.15-.45 1.85-.45a4.3 4.3 0 0 1 3.15 1.42c.4.45.7.96.92 1.55a5.88 5.88 0 0 1-.2 4.43 4.32 4.32 0 0 1-1.45 1.76c-.62.43-1.32.65-2.1.65Zm-.97-2.43c.31 0 .6-.07.84-.2a2.37 2.37 0 0 0 1.12-1.35c.1-.31.16-.63.16-.97a2.46 2.46 0 0 0-.65-1.71c-.2-.23-.44-.4-.72-.52a2.23 2.23 0 0 0-1.49-.1 2.41 2.41 0 0 0-1.39 1.2v1.96c.14.32.31.61.53.86.21.25.46.46.73.61.28.15.57.22.87.22Zm10.65 2.43c-.8 0-1.53-.13-2.16-.4a4.64 4.64 0 0 1-2.58-2.64 5.33 5.33 0 0 1 0-3.73 4.75 4.75 0 0 1 2.58-2.64c.63-.27 1.35-.4 2.16-.4.8 0 1.52.13 2.14.4a4.64 4.64 0 0 1 2.57 2.64 5.13 5.13 0 0 1-.99 5.3c-.43.45-.96.81-1.58 1.07-.62.27-1.34.4-2.14.4Zm-2.1-4.9c0 .5.08.93.26 1.3.2.37.45.66.76.86.31.2.67.31 1.08.31.4 0 .75-.1 1.06-.3.32-.22.58-.52.76-.89.18-.37.27-.8.27-1.28 0-.49-.1-.92-.27-1.3a2.05 2.05 0 0 0-.76-.86 1.9 1.9 0 0 0-1.06-.3c-.4 0-.77.1-1.08.3-.31.2-.57.5-.76.87-.18.37-.27.8-.27 1.3Zm8.24 4.72v-9.45h2.86v3.38h.69l2.34-3.38h3.1l-3.25 4.54 3.59 4.91h-3.3l-2.54-3.56h-.63V211H66.9Zm14.43.18c-.8 0-1.53-.13-2.16-.4a4.64 4.64 0 0 1-2.58-2.64 5.33 5.33 0 0 1 0-3.73 4.75 4.75 0 0 1 2.58-2.64c.63-.27 1.35-.4 2.16-.4.8 0 1.51.13 2.14.4a4.64 4.64 0 0 1 2.57 2.64 5.13 5.13 0 0 1-.99 5.3c-.43.45-.96.81-1.58 1.07-.63.27-1.34.4-2.14.4Zm-2.11-4.9c0 .5.09.93.27 1.3.2.37.44.66.76.86.3.2.67.31 1.08.31.4 0 .75-.1 1.06-.3.32-.22.57-.52.75-.89.18-.37.27-.8.27-1.28 0-.49-.09-.92-.27-1.3a2.05 2.05 0 0 0-.75-.86 1.9 1.9 0 0 0-1.06-.3c-.41 0-.77.1-1.08.3-.32.2-.57.5-.76.87-.18.37-.27.8-.27 1.3Zm8.25 4.72v-9.45h8.84V211h-2.88v-6.93h-3.08V211h-2.88Zm12.6 0v-6.93h-2.87v-2.52h8.6v2.52h-2.86V211h-2.88Zm11.11.18a4.98 4.98 0 0 1-3.74-1.44 4.6 4.6 0 0 1-.99-1.53 5.2 5.2 0 0 1 .25-4.32 4.7 4.7 0 0 1 1.75-1.82 5.1 5.1 0 0 1 2.73-.7 5.1 5.1 0 0 1 2.72.68 4.6 4.6 0 0 1 1.73 1.8 4.95 4.95 0 0 1 .52 3.32h-6.98c.03.42.15.77.34 1.06a2.07 2.07 0 0 0 1.76.88c.44 0 .84-.1 1.21-.3.38-.21.65-.49.8-.83l2.44.68c-.24.5-.58.93-1.03 1.31-.43.38-.94.67-1.54.89-.6.21-1.25.32-1.97.32Zm-2.08-5.78h4.1c-.05-.4-.16-.74-.34-1.02a2 2 0 0 0-1.71-.94c-.37 0-.71.08-1.01.25-.29.16-.52.39-.7.69-.18.28-.3.63-.34 1.02Zm14.05 5.78c-.71 0-1.33-.15-1.86-.45a3.38 3.38 0 0 1-1.24-1.26v5.36h-2.88v-13.28h2.5v1.53c.35-.54.79-.96 1.31-1.26.53-.3 1.15-.45 1.86-.45a4.3 4.3 0 0 1 3.15 1.42c.4.45.7.96.92 1.55.21.59.32 1.22.32 1.9 0 .94-.17 1.78-.52 2.53a4.32 4.32 0 0 1-1.46 1.76c-.61.43-1.31.65-2.1.65Zm-.98-2.43c.31 0 .6-.07.85-.2a2.37 2.37 0 0 0 1.11-1.35c.11-.31.17-.63.17-.97a2.46 2.46 0 0 0-.65-1.71c-.2-.23-.45-.4-.72-.52a2.23 2.23 0 0 0-1.5-.1c-.19.07-.37.16-.55.28a2.41 2.41 0 0 0-.83.93v1.95c.13.32.3.61.52.86.22.25.46.46.74.61.28.15.56.22.86.22Zm6.17 2.25v-9.45h2.88v2.83h1.53c1.14 0 2.02.3 2.63.9.62.58.94 1.36.94 2.32 0 .67-.14 1.26-.4 1.78-.25.52-.63.92-1.13 1.2-.5.28-1.13.42-1.86.42h-4.59Zm2.88-2.18h1.24c.27 0 .48-.05.65-.14.18-.11.31-.25.4-.43a1.55 1.55 0 0 0 0-1.23.98.98 0 0 0-.4-.43c-.17-.1-.39-.16-.66-.16h-1.23v2.4Zm6.52 2.18v-9.45h2.88V211h-2.88Z" fill="#000"/><path d="M26.05 46.26c-5.54.49-10.21 1.6-11.47 2.67-.73.62-.73.62-.24 1.16.65.72 3.72 1.64 7.25 2.23 4 .67 12.51.7 13.72.05 1.22-.66 1.63-1.4 1.63-2.98 0-1.62-.62-2.41-2.22-2.85-1.45-.39-5.78-.54-8.67-.28ZM39.77 46.49c-.12.28-.25 2.1-.25 4.11 0 4.06.15 3.78-2.2 3.93l-1.03.08-.25 5.09-1.2.28c-2.57.67-3.99 2.6-3.78 5.3.13 1.92 1.03 3.34 2.58 4.08 1.1.52 1.47.54 11.24.54 5.55 0 10.14.08 10.19.18.05.13-1.1 9.4-2.58 20.64-1.44 11.23-2.68 21-2.7 21.67-.06 1.61.82 2.62 2.34 2.62 1.24 0 2.01-.64 2.32-1.9.13-.52 1.5-10.34 3.02-21.83a727.78 727.78 0 0 1 2.94-20.86c.1 0 1.08 1.4 2.2 3.13 2.93 4.63 2.4 4.32 7.63 4.32h4.36v5.63l-5.14.08c-4.72.07-5.2.12-5.88.61-1.57 1.16-1.62 1.42-1.62 10.98 0 9.53.02 9.79 1.52 11.05l.85.7H95.7l.85-.7c1.5-1.26 1.52-1.52 1.52-11.05 0-9.56-.05-9.82-1.63-10.98-.67-.49-1.16-.54-5.88-.61l-5.13-.08v-5.63h4.36c5.23 0 4.7.3 7.63-4.32a25.53 25.53 0 0 1 2.2-3.13c.07 0 1.42 9.4 2.94 20.86 1.52 11.5 2.89 21.31 3.02 21.83.3 1.26 1.08 1.9 2.32 1.9 1.52 0 2.4-1 2.34-2.62-.02-.67-1.26-10.44-2.7-21.67a899.97 899.97 0 0 1-2.58-20.64c.05-.1 4.64-.18 10.19-.18 9.77 0 10.13-.02 11.24-.54 1.55-.74 2.45-2.16 2.58-4.08a4.75 4.75 0 0 0-3.8-5.3L124 59.7l-.26-5.09-1.03-.08c-2.34-.15-2.2.13-2.2-3.93 0-2-.12-3.83-.25-4.11-.2-.36-.54-.49-1.37-.49-.61 0-1.23.13-1.42.3-.2.21-.3 1.47-.3 3.94 0 2.47-.1 3.73-.31 3.93-.18.18-.9.31-1.65.31-1.63 0-1.66.05-1.66 3.11v2.29H46.48v-2.29c0-3.06-.02-3.1-1.65-3.1-.75 0-1.47-.14-1.65-.32-.2-.2-.31-1.46-.31-3.93s-.1-3.73-.3-3.93c-.19-.18-.81-.31-1.43-.31-.82 0-1.16.13-1.37.49ZM82.62 86.6c2.89.9 5.39 3.4 6.16 6.17.44 1.54.31 4.21-.28 5.78-.7 1.88-2.69 4-4.57 4.94-1.29.64-1.75.71-3.92.71-2.16 0-2.63-.07-3.92-.71a10.22 10.22 0 0 1-4.56-4.94c-.6-1.57-.73-4.24-.29-5.78a9.58 9.58 0 0 1 6.06-6.17 7.56 7.56 0 0 1 5.32 0Z" fill="#363636"/><path d="M77.8 90.44c-2.04.92-3.51 3.65-3.07 5.73a5.43 5.43 0 0 0 8 3.7 5.3 5.3 0 0 0 2.44-5.78 5.38 5.38 0 0 0-5.16-4.14c-.64 0-1.62.23-2.22.49ZM50.1 46.15c-3.93.67-4.52 1.14-4.52 3.45 0 1.82.46 2.41 2.27 2.95 1.55.47 7.17.52 10.5.13 6.86-.82 11.32-2.54 9.7-3.75-1.27-.9-4.9-1.88-9.06-2.39-2.47-.3-8-.54-8.9-.39ZM103.48 46.26c-6.31.59-11.86 2.08-11.86 3.18 0 1.73 7.84 3.47 15.63 3.5 5.8 0 7.2-.64 7.2-3.34 0-1.83-.62-2.62-2.38-3.09-1.65-.4-5.67-.51-8.59-.25ZM126.78 46.28c-1.78.23-3.02.77-3.43 1.5-.4.76-.31 2.9.15 3.57.93 1.3 1.65 1.46 7.07 1.46 3.66 0 5.8-.13 7.87-.49 3.53-.59 6.6-1.51 7.24-2.23.5-.54.5-.54-.23-1.16-1.34-1.13-5.96-2.18-11.92-2.67-3.48-.29-4.48-.29-6.75.02Z" fill="#363636"/></svg>