<svg width="160" height="253" fill="none" xmlns="http://www.w3.org/2000/svg"><path fill="#FFE17F" d="M0 0h160v160H0z"/><path d="M6.1 211v-1.15a6.2 6.2 0 0 1-3.94-1.64 5.46 5.46 0 0 1-1.67-4c0-.86.15-1.63.46-2.32a5.53 5.53 0 0 1 3.06-2.86 6.28 6.28 0 0 1 2.1-.47v-1h2.78v1a6.28 6.28 0 0 1 3.89 1.6 5.3 5.3 0 0 1 1.73 4.05 5.4 5.4 0 0 1-1.71 4.02 6.32 6.32 0 0 1-3.9 1.62V211H6.1Zm.07-3.51v-6.57a2.93 2.93 0 0 0-2.36 1.57 3.6 3.6 0 0 0-.37 1.72 3.23 3.23 0 0 0 .83 2.36 2.9 2.9 0 0 0 1.9.92Zm2.65 0a2.96 2.96 0 0 0 2.34-1.57c.26-.46.4-1.03.4-1.7 0-.51-.08-.95-.22-1.34a2.99 2.99 0 0 0-1.48-1.67 2.6 2.6 0 0 0-1.04-.29v6.57Zm6.73 3.51v-9.45h2.88v5.62l3.66-5.62h2.63V211h-2.88v-5.45L18.2 211h-2.65Zm12.91 0v-6.93H25.6v-2.52h8.6v2.52h-2.86V211h-2.88Zm6.62 0v-9.45h2.88v3.42h3.23v-3.42h2.88V211h-2.88v-3.65h-3.23V211h-2.88Zm15.15.18a4.98 4.98 0 0 1-3.74-1.44 4.6 4.6 0 0 1-1-1.53 5.2 5.2 0 0 1 .25-4.32 4.7 4.7 0 0 1 1.75-1.82 5.1 5.1 0 0 1 2.74-.7 5.1 5.1 0 0 1 2.72.68 4.6 4.6 0 0 1 1.72 1.8 4.95 4.95 0 0 1 .53 3.32H48.2c.04.42.15.77.34 1.06a2.07 2.07 0 0 0 1.77.88c.43 0 .83-.1 1.2-.3.39-.21.65-.49.8-.83l2.44.68c-.24.5-.58.93-1.02 1.31-.43.38-.95.67-1.55.89-.59.21-1.24.32-1.96.32Zm-2.09-5.78h4.1c-.04-.4-.16-.74-.34-1.02a2 2 0 0 0-1.71-.94c-.37 0-.7.08-1 .25-.3.16-.53.39-.7.69-.19.28-.3.63-.35 1.02Zm12.6 5.78c-.81 0-1.53-.13-2.15-.4a4.84 4.84 0 0 1-1.6-1.08 4.75 4.75 0 0 1-1-1.56 5.13 5.13 0 0 1 .26-4.29c.4-.74.99-1.34 1.75-1.8a5.2 5.2 0 0 1 2.73-.68c1.08 0 2 .23 2.74.7a4.35 4.35 0 0 1 1.69 1.8l-2.8.85a1.87 1.87 0 0 0-1.65-.9c-.4 0-.75.1-1.08.3-.3.2-.56.49-.75.85-.18.36-.27.8-.27 1.3 0 .49.1.92.29 1.3.19.36.44.66.75.87a1.99 1.99 0 0 0 1.73.2 1.98 1.98 0 0 0 .99-.83l2.8.87c-.22.48-.55.91-.98 1.3-.42.37-.92.66-1.5.88-.57.21-1.23.32-1.96.32Zm5.36-3.83v-2.6h5.55v2.6H66.1Zm11.99 3.83c-1.64 0-2.9-.48-3.76-1.44-.85-.97-1.28-2.42-1.28-4.34 0-1.13.1-2.08.3-2.86.2-.8.52-1.45.92-1.96.41-.53.93-.95 1.55-1.26a8.28 8.28 0 0 1 2.2-.74l4.07-.92.03 2.27-4.08.99a4.9 4.9 0 0 0-1.44.63c-.42.26-.77.6-1.03 1.03-.25.42-.4.94-.47 1.56.39-.56.89-1.01 1.51-1.35a4.8 4.8 0 0 1 2.3-.5c.82 0 1.55.18 2.19.54.63.36 1.13.86 1.49 1.5a4.94 4.94 0 0 1-.04 4.57c-.38.7-.95 1.26-1.7 1.67-.75.4-1.67.61-2.76.61Zm0-2.43a2 2 0 0 0 1.51-.58c.39-.38.58-.89.58-1.53a2 2 0 0 0-2.1-2.07c-.39 0-.74.09-1.05.26-.31.16-.57.4-.76.72-.18.3-.27.67-.27 1.1 0 .41.09.79.25 1.11.18.31.43.56.74.74.31.17.68.25 1.1.25Zm12.08 2.43c-.71 0-1.33-.15-1.86-.45a3.38 3.38 0 0 1-1.24-1.26v5.36h-2.88v-13.28h2.5v1.53c.35-.54.79-.96 1.32-1.26.52-.3 1.14-.45 1.85-.45a4.3 4.3 0 0 1 3.15 1.42c.4.45.7.96.92 1.55.21.59.32 1.22.32 1.9 0 .94-.17 1.78-.52 2.53a4.32 4.32 0 0 1-1.46 1.76c-.61.43-1.31.65-2.1.65Zm-.98-2.43c.32 0 .6-.07.85-.2a2.37 2.37 0 0 0 1.12-1.35c.1-.31.16-.63.16-.97a2.46 2.46 0 0 0-.65-1.71c-.2-.23-.44-.4-.72-.52a2.23 2.23 0 0 0-1.5-.1c-.19.07-.37.16-.55.28a2.41 2.41 0 0 0-.83.93v1.95c.13.32.3.61.52.86.22.25.46.46.74.61.28.15.56.22.86.22Zm5.56-.58c0-.62.17-1.17.52-1.63.35-.47.83-.84 1.44-1.1a5.07 5.07 0 0 1 2.1-.42 5.95 5.95 0 0 1 2.11.38V205c0-.52-.15-.91-.46-1.19-.32-.28-.79-.41-1.43-.41-.52 0-1.02.09-1.49.27-.46.18-.94.43-1.46.77l-.86-1.84a7.52 7.52 0 0 1 4.1-1.22c1.42 0 2.52.34 3.3 1.03.79.67 1.18 1.65 1.18 2.93v2.47c0 .28.05.49.13.6.1.12.26.18.49.2v2.4a8 8 0 0 1-1.23.14c-.54 0-.95-.1-1.24-.32a1.42 1.42 0 0 1-.52-.88l-.06-.42a4.16 4.16 0 0 1-3.33 1.66 3.6 3.6 0 0 1-1.69-.4c-.49-.26-.88-.62-1.17-1.08a2.8 2.8 0 0 1-.43-1.53Zm5.72.36c.14-.1.24-.22.33-.36a.7.7 0 0 0 .12-.37v-.85a3.8 3.8 0 0 0-.8-.22 3.99 3.99 0 0 0-.82-.09c-.52 0-.96.12-1.31.36-.35.23-.52.54-.52.92 0 .22.06.42.18.6s.28.32.48.43c.22.1.47.16.76.16.29 0 .58-.05.86-.16.3-.11.53-.25.72-.42Zm9.58 2.65c-.8 0-1.52-.13-2.14-.4a4.84 4.84 0 0 1-1.6-1.08 4.75 4.75 0 0 1-1-1.56 5.13 5.13 0 0 1 .26-4.29c.4-.74.99-1.34 1.74-1.8a5.2 5.2 0 0 1 2.74-.68c1.08 0 2 .23 2.73.7a4.35 4.35 0 0 1 1.7 1.8l-2.81.85a1.87 1.87 0 0 0-1.64-.9c-.4 0-.75.1-1.08.3-.31.2-.56.49-.76.85-.17.36-.27.8-.27 1.3 0 .49.1.92.3 1.3.19.36.44.66.75.87a1.99 1.99 0 0 0 1.73.2 1.98 1.98 0 0 0 .99-.83l2.8.87c-.22.48-.55.91-.98 1.3-.43.37-.92.66-1.5.88-.58.21-1.23.32-1.96.32Zm4.77-.04v-2.55c.3 0 .54-.06.76-.18.22-.12.4-.32.56-.6.17-.27.3-.67.4-1.18.09-.52.16-1.18.2-1.98l.12-3.1h7.47V211h-2.88v-6.93h-2.04l-.03.88c-.06 1.2-.2 2.2-.4 3-.19.8-.47 1.43-.84 1.9a3.2 3.2 0 0 1-1.37.99c-.54.2-1.19.3-1.95.3Zm15.67.04a4.98 4.98 0 0 1-3.74-1.44 4.6 4.6 0 0 1-1-1.53 5.2 5.2 0 0 1 .25-4.32 4.7 4.7 0 0 1 1.76-1.82 5.1 5.1 0 0 1 2.73-.7 5.1 5.1 0 0 1 2.72.68 4.6 4.6 0 0 1 1.73 1.8 4.95 4.95 0 0 1 .52 3.32h-6.98c.03.42.15.77.34 1.06a2.07 2.07 0 0 0 1.76.88c.43 0 .84-.1 1.2-.3.4-.21.66-.49.8-.83l2.45.68c-.24.5-.58.93-1.03 1.31-.43.38-.94.67-1.54.89-.6.21-1.25.32-1.97.32Zm-2.09-5.78h4.1c-.04-.4-.15-.74-.33-1.02a2 2 0 0 0-1.71-.94c-.37 0-.71.08-1.01.25-.29.16-.52.39-.7.69-.18.28-.3.63-.34 1.02Zm10.2 5.6v-6.93h-2.86v-2.52h8.6v2.52h-2.86V211h-2.88Zm6.62 0v-9.45h2.88v2.83h1.53c1.14 0 2.02.3 2.63.9.63.58.94 1.36.94 2.32 0 .67-.13 1.26-.4 1.78-.25.52-.63.92-1.13 1.2-.5.28-1.12.42-1.86.42h-4.59Zm2.88-2.18h1.25c.26 0 .48-.05.64-.14.18-.11.32-.25.4-.43a1.55 1.55 0 0 0 0-1.23.98.98 0 0 0-.4-.43c-.16-.1-.39-.16-.66-.16h-1.23v2.4Zm6.52 2.18v-9.45h2.88V211h-2.88Z" fill="#000"/><path d="M124.97 52.07a10.4 10.4 0 0 1 1.2 4.82V78c0 4.62-3.09 8.53-7.24 9.9-1.33 4-3.78 7.86-8.05 10.44-8.68 5.23-31.13 4.83-31.2 4.83-.08 0-22.51.4-31.19-4.83a18.73 18.73 0 0 1-8.04-10.28 10.5 10.5 0 0 1-7.76-10.06V56.9c0-1.68.43-3.28 1.14-4.69-3.66.9-7.83 2.72-7.83 6.23v29.99c0 10.25 11.84 24.43 53.66 24.43 41.82 0 53.65-14.18 53.65-24.43V58.43c0-3.68-4.57-5.49-8.34-6.36Z" fill="#363636"/><path d="M46.56 86.46h65.52c5.57 0 10.08-4.51 10.08-10.08V57.94c0-5.57-4.51-10.08-10.08-10.08H46.56A10.08 10.08 0 0 0 36.5 57.94v18.44c0 5.57 4.5 10.08 10.07 10.08Zm63.13-29a1.57 1.57 0 1 1 0 3.15 1.57 1.57 0 0 1 0-3.14Zm0 4.05a1.57 1.57 0 1 1 0 3.13 1.57 1.57 0 0 1 0-3.13Zm0 4.04a1.57 1.57 0 1 1 0 3.13 1.57 1.57 0 0 1 0-3.13Zm0 3.82a1.57 1.57 0 1 1 0 3.14 1.57 1.57 0 0 1 0-3.14Zm0 4.04a1.57 1.57 0 1 1 0 3.14 1.57 1.57 0 0 1 0-3.14Zm-4.03-15.94a1.57 1.57 0 1 1 0 3.13 1.57 1.57 0 0 1 0-3.13Zm0 15.94a1.57 1.57 0 1 1 0 3.14 1.57 1.57 0 0 1 0-3.14Zm-4.04-15.94a1.57 1.57 0 1 1 0 3.14 1.57 1.57 0 0 1 0-3.14Zm0 4.04a1.57 1.57 0 1 1 0 3.14 1.57 1.57 0 0 1 0-3.14Zm0 4.04a1.57 1.57 0 1 1 0 3.13 1.57 1.57 0 0 1 0-3.13Zm0 3.82a1.57 1.57 0 1 1 0 3.14 1.57 1.57 0 0 1 0-3.14Zm0 4.04a1.57 1.57 0 1 1 0 3.14 1.57 1.57 0 0 1 0-3.14Zm-7.66-15.94a1.57 1.57 0 1 1 0 3.13 1.57 1.57 0 0 1 0-3.13Zm0 8.08a1.57 1.57 0 1 1 0 3.13 1.57 1.57 0 0 1 0-3.13Zm0 3.88a1.57 1.57 0 1 1 0 3.13 1.57 1.57 0 0 1 0-3.13Zm0 3.98a1.57 1.57 0 1 1 0 3.14 1.57 1.57 0 0 1 0-3.14Zm-4.03-15.94a1.57 1.57 0 1 1 0 3.14 1.57 1.57 0 0 1 0-3.14Zm0 8.08a1.57 1.57 0 1 1 0 3.13 1.57 1.57 0 0 1 0-3.13Zm0 7.86a1.57 1.57 0 1 1 0 3.14 1.57 1.57 0 0 1 0-3.14Zm-4.04-15.94a1.57 1.57 0 1 1 0 3.14 1.57 1.57 0 0 1 0-3.14Zm0 4.04a1.57 1.57 0 1 1 0 3.14 1.57 1.57 0 0 1 0-3.14Zm0 4.04a1.57 1.57 0 1 1 0 3.14 1.57 1.57 0 0 1 0-3.14Zm0 7.86a1.57 1.57 0 1 1 0 3.14 1.57 1.57 0 0 1 0-3.14Zm-8.3-15.94a1.57 1.57 0 1 1 0 3.14 1.57 1.57 0 0 1 0-3.14Zm0 4.04a1.57 1.57 0 1 1 0 3.13 1.57 1.57 0 0 1 0-3.13Zm0 4.04a1.57 1.57 0 1 1 0 3.13 1.57 1.57 0 0 1 0-3.13Zm0 3.88a1.57 1.57 0 1 1 .01 3.13 1.57 1.57 0 0 1 0-3.13Zm0 3.98a1.57 1.57 0 1 1 0 3.14 1.57 1.57 0 0 1 0-3.14Zm-4.03-11.9a1.57 1.57 0 1 1 0 3.13 1.57 1.57 0 0 1 0-3.13Zm-8.5-.21a1.57 1.57 0 1 1 0 3.14 1.57 1.57 0 0 1 0-3.14Zm0 4.03a1.57 1.57 0 1 1 0 3.14 1.57 1.57 0 0 1 0-3.14Zm-4.04-8.07a1.57 1.57 0 1 1 0 3.13 1.57 1.57 0 0 1 0-3.13Zm0 4.04a1.57 1.57 0 1 1 0 3.13 1.57 1.57 0 0 1 0-3.13Zm0 4.03a1.57 1.57 0 1 1 0 3.14 1.57 1.57 0 0 1 0-3.14Zm0 4.04a1.57 1.57 0 1 1 0 3.14 1.57 1.57 0 0 1 0-3.14Zm-4.26-8.07a1.57 1.57 0 1 1 0 3.13 1.57 1.57 0 0 1 0-3.13Zm0 4.03a1.57 1.57 0 1 1 0 3.14 1.57 1.57 0 0 1 0-3.14Zm0 4.04a1.57 1.57 0 1 1 0 3.14 1.57 1.57 0 0 1 0-3.14Zm0 4.04a1.57 1.57 0 1 1 0 3.14 1.57 1.57 0 0 1 0-3.14ZM52.3 57.26a1.57 1.57 0 1 1 0 3.14 1.57 1.57 0 0 1 0-3.14Zm0 4.04a1.57 1.57 0 1 1 0 3.14 1.57 1.57 0 0 1 0-3.14Zm0 4.03a1.57 1.57 0 1 1 0 3.15 1.57 1.57 0 0 1 0-3.15Zm0 4.04a1.57 1.57 0 1 1 0 3.15 1.57 1.57 0 0 1 0-3.15Zm-4.04-8.07a1.57 1.57 0 1 1 0 3.14 1.57 1.57 0 0 1 0-3.14Zm0 4.03a1.57 1.57 0 1 1 0 3.14 1.57 1.57 0 0 1 0-3.14Z" fill="#363636"/></svg>