<svg width="160" height="253" fill="none" xmlns="http://www.w3.org/2000/svg"><path fill="#FFE17F" d="M0 0h160v160H0z"/><path d="M11.3 211v-7.61l-2.75 5.54H6.93l-2.75-5.54V211H1.22v-12.78h3.2l3.32 6.68 3.33-6.68h3.19V211H11.3Zm9.16.18c-.8 0-1.53-.13-2.16-.4a4.64 4.64 0 0 1-2.58-2.64 5.33 5.33 0 0 1 0-3.73 4.75 4.75 0 0 1 2.58-2.64c.63-.27 1.35-.4 2.16-.4.8 0 1.52.13 2.14.4a4.64 4.64 0 0 1 2.57 2.64 5.13 5.13 0 0 1-.99 5.3c-.43.45-.96.81-1.58 1.07-.62.27-1.34.4-2.14.4Zm-2.1-4.9c0 .5.08.93.26 1.3.2.37.45.66.76.86.31.2.67.31 1.08.31.4 0 .75-.1 1.06-.3.32-.22.58-.52.76-.89.18-.37.27-.8.27-1.28 0-.49-.1-.92-.27-1.3a2.05 2.05 0 0 0-.76-.86 1.9 1.9 0 0 0-1.06-.3c-.41 0-.77.1-1.08.3-.31.2-.57.5-.76.87-.18.37-.27.8-.27 1.3ZM26.6 211v-9.45h2.88v3.42h3.22v-3.42h2.88V211H32.7v-3.65h-3.22V211H26.6Zm15.13.18c-.8 0-1.53-.13-2.16-.4a4.64 4.64 0 0 1-2.58-2.64 5.33 5.33 0 0 1 0-3.73 4.75 4.75 0 0 1 2.58-2.64c.63-.27 1.35-.4 2.16-.4.8 0 1.52.13 2.14.4a4.64 4.64 0 0 1 2.57 2.64 5.13 5.13 0 0 1-.99 5.3c-.43.45-.96.81-1.58 1.07-.62.27-1.34.4-2.14.4Zm-2.1-4.9c0 .5.08.93.26 1.3.2.37.45.66.76.86.31.2.67.31 1.08.31.4 0 .75-.1 1.06-.3.32-.22.58-.52.76-.89.18-.37.27-.8.27-1.28 0-.49-.1-.92-.27-1.3a2.05 2.05 0 0 0-.76-.86 1.9 1.9 0 0 0-1.06-.3c-.41 0-.77.1-1.08.3-.31.2-.57.5-.76.87-.18.37-.27.8-.27 1.3Zm8.24 4.72v-9.45h8.84V211h-2.88v-6.93h-3.08V211h-2.88Zm14.97.18c-.8 0-1.52-.13-2.16-.4a4.64 4.64 0 0 1-2.57-2.64 5.33 5.33 0 0 1 0-3.73 4.75 4.75 0 0 1 2.57-2.64c.64-.27 1.36-.4 2.16-.4s1.52.13 2.14.4a4.64 4.64 0 0 1 2.58 2.64 5.13 5.13 0 0 1-1 5.3c-.43.45-.95.81-1.58 1.07-.62.27-1.34.4-2.14.4Zm-2.1-4.9c0 .5.08.93.26 1.3.2.37.45.66.76.86.31.2.67.31 1.08.31.4 0 .75-.1 1.06-.3.33-.22.58-.52.76-.89.18-.37.27-.8.27-1.28 0-.49-.1-.92-.27-1.3a2.05 2.05 0 0 0-.76-.86 1.9 1.9 0 0 0-1.06-.3c-.4 0-.77.1-1.08.3-.31.2-.56.5-.76.87-.18.37-.27.8-.27 1.3Zm7.61 7.04v-4.82h.3c.2 0 .42-.06.62-.16.2-.12.39-.32.54-.6.16-.27.28-.66.38-1.17.1-.5.17-1.14.2-1.92l.12-3.1h7.46v6.95h1.35v4.82H76.8V211h-5.93v2.32h-2.52Zm3.78-4.82h2.96v-4.56h-2.06l-.05 1.01c-.04.66-.09 1.23-.16 1.7a4.8 4.8 0 0 1-.27 1.15c-.1.28-.25.52-.42.7Zm8.3 2.5v-9.45h2.89v2.83h1.53c1.14 0 2.01.3 2.63.9.62.58.93 1.36.93 2.32 0 .67-.13 1.26-.4 1.78-.25.52-.62.92-1.13 1.2-.5.28-1.12.42-1.85.42h-4.6Zm2.89-2.18h1.24c.26 0 .48-.05.65-.14.18-.11.3-.25.4-.43a1.55 1.55 0 0 0 0-1.23.98.98 0 0 0-.4-.43c-.17-.1-.4-.16-.67-.16h-1.22v2.4Zm6.51 2.18v-9.45h2.88V211h-2.88ZM.38 237.32v-4.82h.29c.21 0 .42-.06.63-.16.2-.12.38-.32.54-.6.15-.27.28-.66.37-1.17.11-.5.18-1.14.2-1.92l.13-3.1h7.45v6.95h1.35v4.82H8.82V235H2.9v2.32H.38Zm3.78-4.82H7.1v-4.56H5.06L5 228.95c-.03.66-.09 1.23-.16 1.7a4.8 4.8 0 0 1-.27 1.15c-.1.28-.24.52-.41.7Zm7.67 2.64v-2.55c.29 0 .54-.06.76-.18.21-.12.4-.32.55-.6.17-.27.3-.67.4-1.18.1-.52.16-1.18.2-1.98l.12-3.1h7.47V235h-2.88v-6.93h-2.03l-.04.88c-.06 1.2-.19 2.2-.4 3-.18.8-.47 1.43-.84 1.9a3.2 3.2 0 0 1-1.37.99c-.54.2-1.18.3-1.94.3ZM22.6 235l2.23-3.62c-.54-.18-.96-.49-1.26-.93a3.15 3.15 0 0 1-.45-1.77 2.93 2.93 0 0 1 1.66-2.77c.53-.26 1.13-.4 1.8-.4h4.84V235h-2.88v-3.11h-.95L25.75 235H22.6Zm4.38-5.15h1.56v-2.16h-1.53c-.36 0-.64.1-.84.3-.2.2-.3.45-.3.76 0 .33.1.6.28.8.2.2.47.3.83.3Zm14.44 5.33c-.8 0-1.52-.13-2.14-.4a4.84 4.84 0 0 1-1.6-1.08 4.75 4.75 0 0 1-1-1.56 5.13 5.13 0 0 1 .26-4.29c.4-.74.99-1.34 1.75-1.8a5.2 5.2 0 0 1 2.73-.68c1.08 0 2 .23 2.74.7a4.35 4.35 0 0 1 1.69 1.8l-2.8.85a1.87 1.87 0 0 0-1.65-.9c-.4 0-.75.1-1.08.3-.3.2-.56.49-.75.85-.18.36-.27.8-.27 1.3 0 .49.1.92.29 1.3.19.36.44.66.75.87a1.99 1.99 0 0 0 1.73.2 1.98 1.98 0 0 0 .99-.83l2.8.87c-.22.48-.55.91-.98 1.3-.42.37-.92.66-1.5.88-.57.21-1.23.32-1.96.32Zm9.82 0a4.98 4.98 0 0 1-3.74-1.44 4.6 4.6 0 0 1-1-1.53 5.2 5.2 0 0 1 .25-4.32 4.7 4.7 0 0 1 1.75-1.82 5.1 5.1 0 0 1 2.74-.7 5.1 5.1 0 0 1 2.72.68 4.6 4.6 0 0 1 1.73 1.8 4.95 4.95 0 0 1 .52 3.32h-6.99c.04.42.15.77.35 1.06a2.07 2.07 0 0 0 1.76.88c.43 0 .83-.1 1.2-.3.39-.21.65-.49.8-.83l2.45.68c-.24.5-.59.93-1.03 1.31-.43.38-.95.67-1.55.89-.59.21-1.24.32-1.96.32Zm-2.09-5.78h4.1c-.04-.4-.16-.74-.34-1.02a2 2 0 0 0-1.71-.94c-.37 0-.7.08-1 .25-.3.16-.53.39-.7.69-.19.28-.3.63-.35 1.02Zm7.46 5.74v-2.55c.3 0 .54-.06.76-.18.21-.12.4-.32.56-.6.16-.27.3-.67.4-1.18.09-.52.15-1.18.2-1.98l.12-3.1h7.47V235h-2.88v-6.93H61.2l-.03.88c-.06 1.2-.2 2.2-.4 3-.2.8-.47 1.43-.85 1.9a3.2 3.2 0 0 1-1.36.99c-.54.2-1.2.3-1.95.3Zm15.58 3.7V235h-.23c-1.01 0-1.87-.22-2.58-.65a4.44 4.44 0 0 1-1.62-1.74 4.99 4.99 0 0 1-.56-2.33c0-.84.2-1.62.56-2.34.38-.72.91-1.3 1.62-1.72.71-.45 1.57-.67 2.58-.67h.23v-3.69h2.88v3.69h.25c1.01 0 1.87.22 2.58.67.72.43 1.26 1 1.62 1.72.37.72.56 1.5.56 2.34 0 .83-.2 1.6-.56 2.33-.36.72-.9 1.3-1.62 1.74-.71.43-1.57.65-2.58.65h-.25v3.83H72.2Zm-.23-6.13h.4v-4.86h-.4c-.38 0-.71.1-1.01.31-.29.2-.52.5-.69.86-.16.36-.25.78-.25 1.26s.09.91.25 1.28c.17.36.4.64.69.85.3.2.63.3 1 .3Zm2.97 0h.4c.36 0 .7-.1 1-.3.3-.2.53-.49.69-.85.16-.37.25-.8.25-1.28s-.09-.9-.25-1.26c-.17-.37-.4-.66-.7-.86-.3-.2-.63-.3-1-.3h-.4v4.85Zm6.22 2.29v-9.45h2.88v5.62l3.65-5.62h2.63V235h-2.88v-5.45L83.8 235h-2.65Z" fill="#000"/><path d="M119.82 48.01H40.33a3.19 3.19 0 0 0-3.19 3.19V97.6a3.19 3.19 0 0 0 3.19 3.2h79.5a3.19 3.19 0 0 0 3.18-3.2V51.2a3.19 3.19 0 0 0-3.19-3.19ZM45.4 81.24h-.22a3.19 3.19 0 0 1-3.2-3.2v-7.28a3.19 3.19 0 0 1 3.2-3.18h.22v13.66Zm61.23 15.17H50.34v-44h56.28v44Zm8.78-17.86a4.15 4.15 0 1 1 0-8.29 4.15 4.15 0 0 1 0 8.3ZM91.65 44H68.5v2.76h23.15V44ZM83.6 108.86v-2.97h8.05v-2.76H68.5v2.76h8.04v35.24a6.07 6.07 0 0 0-3.63 5.56V161h14.33v-14.3c0-2.5-1.5-4.63-3.63-5.56v-28h4.8l5.04 1.22v-6.71l-5.05 1.21h-4.8Z" fill="#363636"/></svg>