<svg width="161" height="253" fill="none" xmlns="http://www.w3.org/2000/svg"><path fill="#FFE17F" d="M1 0h160v160H1z"/><path d="M3.38 211.1v-2.42H4.5c.31 0 .55-.06.72-.18.17-.13.3-.34.4-.61l.16-.44-4.92-9.23h3.26l2.97 6.25 2.63-6.25h3.11l-4.98 11.05a3.44 3.44 0 0 1-1.2 1.44c-.45.27-1.05.4-1.79.4h-1.5Zm9.94-.1v-9.45h3l2.67 5.06 2.66-5.06h3V211H21.9v-5.53l-2.04 3.87H18.1l-2.03-3.87V211h-2.74Zm12.98 0v-9.45h2.88v3.42h3.22v-3.42h2.88V211H32.4v-3.65h-3.22V211H26.3Zm10.65 0v-9.45h2.88v2.83h1.53c1.14 0 2.01.3 2.62.9.63.58.94 1.36.94 2.32 0 .67-.13 1.26-.4 1.78-.25.52-.63.92-1.13 1.2-.5.28-1.12.42-1.85.42h-4.6Zm2.88-2.18h1.24c.26 0 .48-.05.65-.14.18-.11.3-.25.4-.43a1.55 1.55 0 0 0 0-1.23.98.98 0 0 0-.4-.43c-.17-.1-.4-.16-.67-.16h-1.22v2.4Zm6.51 2.18v-9.45h2.88V211h-2.88Zm9.04.18a4.98 4.98 0 0 1-3.74-1.44 4.6 4.6 0 0 1-1-1.53 5.2 5.2 0 0 1 .25-4.32 4.7 4.7 0 0 1 1.75-1.82 5.1 5.1 0 0 1 2.74-.7 5.1 5.1 0 0 1 2.71.68 4.6 4.6 0 0 1 1.73 1.8 4.95 4.95 0 0 1 .52 3.32h-6.98c.04.42.15.77.34 1.06a2.07 2.07 0 0 0 1.77.88c.43 0 .83-.1 1.2-.3.39-.21.65-.49.8-.83l2.44.68c-.24.5-.58.93-1.02 1.31-.44.38-.95.67-1.55.89-.59.21-1.24.32-1.96.32Zm-2.1-5.78h4.11c-.05-.4-.16-.74-.34-1.02a2 2 0 0 0-1.71-.94c-.37 0-.7.08-1 .25-.3.16-.53.39-.7.69-.19.28-.3.63-.35 1.02Zm17.14 5.6v-3.19a5.05 5.05 0 0 1-2.27.44c-.97 0-1.75-.27-2.34-.8-.57-.54-.86-1.32-.86-2.34v-3.56h2.88v3.19c0 .44.1.78.3 1 .21.22.53.33.96.33.23 0 .46-.02.69-.06.23-.04.45-.12.64-.21v-4.25h2.88V211h-2.88Zm3.94-2.83c0-.62.17-1.17.52-1.63.35-.47.83-.84 1.44-1.1a5.07 5.07 0 0 1 2.1-.42 5.95 5.95 0 0 1 2.11.38V205c0-.52-.16-.91-.47-1.19-.3-.28-.78-.41-1.42-.41-.53 0-1.03.09-1.5.27-.45.18-.94.43-1.45.77l-.87-1.84a7.52 7.52 0 0 1 4.1-1.22c1.42 0 2.52.34 3.3 1.03.8.67 1.2 1.65 1.2 2.93v2.47c-.01.28.03.49.12.6.1.12.25.18.48.2v2.4a8 8 0 0 1-1.22.14c-.54 0-.96-.1-1.24-.32a1.42 1.42 0 0 1-.53-.88l-.05-.42a4.16 4.16 0 0 1-3.33 1.66 3.6 3.6 0 0 1-1.7-.4c-.48-.26-.87-.62-1.16-1.08a2.8 2.8 0 0 1-.43-1.53Zm5.72.36c.13-.1.24-.22.32-.36a.7.7 0 0 0 .13-.37v-.85a3.8 3.8 0 0 0-.8-.22 3.98 3.98 0 0 0-.82-.09c-.53 0-.97.12-1.31.36-.35.23-.53.54-.53.92 0 .22.06.42.18.6s.29.32.49.43c.22.1.47.16.76.16a2.45 2.45 0 0 0 1.58-.58Zm9.58 2.65c-.8 0-1.52-.13-2.15-.4a4.84 4.84 0 0 1-1.6-1.08 4.75 4.75 0 0 1-.99-1.56 5.13 5.13 0 0 1 .25-4.29c.41-.74 1-1.34 1.75-1.8a5.2 5.2 0 0 1 2.74-.68c1.08 0 1.99.23 2.73.7a4.35 4.35 0 0 1 1.7 1.8l-2.81.85a1.87 1.87 0 0 0-1.64-.9c-.4 0-.76.1-1.08.3-.31.2-.57.49-.76.85-.18.36-.27.8-.27 1.3 0 .49.1.92.29 1.3.2.36.44.66.76.87a1.99 1.99 0 0 0 1.73.2 1.98 1.98 0 0 0 .98-.83l2.81.87c-.23.48-.56.91-.99 1.3-.42.37-.92.66-1.5.88-.57.21-1.22.32-1.95.32Zm5.4-.18v-9.45h2.88v2.83h1.53c1.14 0 2.02.3 2.63.9.62.58.94 1.36.94 2.32 0 .67-.14 1.26-.4 1.78-.25.52-.63.92-1.14 1.2-.5.28-1.12.42-1.85.42h-4.59Zm2.88-2.18h1.24c.27 0 .48-.05.65-.14.18-.11.31-.25.4-.43a1.55 1.55 0 0 0 0-1.23.98.98 0 0 0-.4-.43c-.17-.1-.39-.16-.66-.16h-1.23v2.4Zm6.52 2.18v-9.45h2.88V211h-2.88Z" fill="#000"/><path d="M107.5 64.2h-1.52v-4.64a9.16 9.16 0 0 0-9.08-9.19H62.08c-5 0-9.08 4.14-9.08 9.19v42.86a9.16 9.16 0 0 0 9.08 9.19H96.9c5 0 9.08-4.13 9.08-9.19v-3.41h1.52c.41 0 .75-.34.75-.76V84.47a.76.76 0 0 0-.75-.77h-1.52v-8.79h1.52c.83 0 1.5-.69 1.5-1.53v-7.65c0-.84-.67-1.53-1.5-1.53Zm-20.42-3.11c2.93 0 5.3 2.4 5.3 5.36a5.33 5.33 0 0 1-5.3 5.35c-2.92 0-5.3-2.4-5.3-5.35a5.33 5.33 0 0 1 5.3-5.36Zm-15.14 0c2.93 0 5.3 2.4 5.3 5.36a5.33 5.33 0 0 1-5.3 5.35c-2.92 0-5.3-2.4-5.3-5.35a5.33 5.33 0 0 1 5.3-5.36ZM58.3 81.39a5.33 5.33 0 0 1 5.3-5.35c2.92 0 5.3 2.4 5.3 5.36a5.33 5.33 0 0 1-5.3 5.35c-2.93 0-5.3-2.4-5.3-5.35Zm13.64 19.5c-2.92 0-5.3-2.4-5.3-5.35a5.33 5.33 0 0 1 5.3-5.36c2.93 0 5.3 2.4 5.3 5.36a5.33 5.33 0 0 1-5.3 5.35Zm1.5-19.9a6.09 6.09 0 0 1 6.05-6.12 6.09 6.09 0 0 1 6.06 6.12 6.09 6.09 0 0 1-6.06 6.13 6.1 6.1 0 0 1-6.05-6.13Zm13.64 19.9c-2.92 0-5.3-2.4-5.3-5.35a5.33 5.33 0 0 1 5.3-5.36c2.93 0 5.3 2.4 5.3 5.36a5.33 5.33 0 0 1-5.3 5.35Zm8.3-14.13c-2.92 0-5.3-2.4-5.3-5.36a5.33 5.33 0 0 1 5.3-5.36c2.93 0 5.3 2.4 5.3 5.36a5.33 5.33 0 0 1-5.3 5.36ZM62.65 47.31h33.68c.85 0 1.44-.68 1.3-1.51l-1.6-10.77A3.68 3.68 0 0 0 92.5 32H66.47a3.68 3.68 0 0 0-3.51 3.03L61.34 45.8c-.12.83.46 1.51 1.3 1.51ZM96.33 114.67H62.65c-.85 0-1.43.68-1.3 1.52l1.6 10.76a3.68 3.68 0 0 0 3.52 3.03H92.5a3.68 3.68 0 0 0 3.52-3.02l1.62-10.77a1.28 1.28 0 0 0-1.3-1.52Z" fill="#363636"/></svg>