<svg width="1160" height="100" fill="none" xmlns="http://www.w3.org/2000/svg"><path fill="#F0F0F0" d="M0 0h1160v100H0z"/><path fill="#FFE17F" d="M0 0h125v100H0z"/><g clip-path="url(#a)" fill="#000"><path d="m85.7 50.4-6.5-8.2c-.3-.4-.7-.6-1.2-.6h-8.3v-5.1c0-.8-.7-1.5-1.5-1.5H40.5c-.8 0-1.5.7-1.5 1.5s.7 1.5 1.5 1.5h26.2v21.7H54.8c-.6-1.9-2.4-3.3-4.5-3.3-2.6 0-4.8 2.2-4.8 4.8 0 2.6 2.2 4.8 4.8 4.8 2.1 0 3.9-1.4 4.5-3.3h13.4c.8 0 1.5-.7 1.5-1.5V44.6h7.6l5.7 7.3v7.9h-2.2c-.6-1.9-2.4-3.3-4.5-3.3-2.6 0-4.8 2.2-4.8 4.8 0 2.6 2.1 4.8 4.8 4.8 2.1 0 3.9-1.4 4.5-3.3h3.7c.8 0 1.5-.7 1.5-1.5v-9.9c0-.4-.1-.7-.3-1ZM50.3 63c-1 0-1.8-.8-1.8-1.8s.8-1.8 1.8-1.8 1.8.8 1.8 1.8-.9 1.8-1.8 1.8Zm26.1 0c-1 0-1.8-.8-1.8-1.8s.8-1.8 1.8-1.8 1.8.8 1.8 1.8-.9 1.8-1.8 1.8Z"/><path d="M58.4 44.6c.8 0 1.5-.7 1.5-1.5s-.7-1.5-1.5-1.5H43.8c-.8 0-1.5.7-1.5 1.5s.7 1.5 1.5 1.5h14.6ZM56.7 49.7c0-.8-.7-1.5-1.5-1.5H40.5c-.8 0-1.5.7-1.5 1.5s.7 1.5 1.5 1.5h14.7c.8 0 1.5-.7 1.5-1.5Z"/></g><path d="M321.73 61.72v-5.6h.8c.35 0 .65-.13.9-.4.27-.28.5-.7.68-1.28.19-.59.33-1.33.44-2.24.1-.92.18-2.02.22-3.3l.12-4.1h9.84v11.32h1.94v5.6h-2.88V59h-9.2v2.72h-2.86Zm4.64-5.6h5.08v-8.44h-3.58l-.04 1.68c-.02 1.21-.1 2.27-.2 3.16-.1.88-.24 1.62-.44 2.22a3.4 3.4 0 0 1-.82 1.38Zm22.5 3c-1.07 0-2.04-.2-2.9-.6a7.35 7.35 0 0 1-2.23-1.64 7.41 7.41 0 0 1-1.4-7.7c.37-.85.86-1.61 1.49-2.28a6.97 6.97 0 0 1 7.96-1.56 7.44 7.44 0 0 1 3.64 9.3 7.4 7.4 0 0 1-3.75 3.9c-.85.39-1.79.58-2.81.58Zm-3.7-7.2c0 .55.07 1.08.23 1.6.17.5.4.96.7 1.36a3.45 3.45 0 0 0 2.78 1.32c.63 0 1.18-.12 1.64-.36a3.5 3.5 0 0 0 1.17-1 5.34 5.34 0 0 0 .68-4.54c-.17-.5-.4-.96-.73-1.36a3.3 3.3 0 0 0-2.75-1.3c-.63 0-1.18.12-1.64.36-.46.24-.85.57-1.17.98-.3.4-.53.86-.7 1.38-.14.5-.21 1.03-.21 1.56Zm15.85-.14a7.22 7.22 0 0 1 1.88-4.82 6.98 6.98 0 0 1 5.24-2.24 6.7 6.7 0 0 1 3.46.86 5.54 5.54 0 0 1 2.2 2.24l-2.52 1.76a2.86 2.86 0 0 0-2.02-1.76 4.3 4.3 0 0 0-1.2-.18 3.39 3.39 0 0 0-2.8 1.36c-.3.41-.53.87-.68 1.38a5.47 5.47 0 0 0 .04 3.14 3.83 3.83 0 0 0 1.94 2.34c.47.23.98.34 1.54.34a3.96 3.96 0 0 0 2.36-.82c.36-.3.63-.67.82-1.14l2.68 1.58c-.28.7-.74 1.29-1.38 1.78-.64.5-1.37.87-2.18 1.14-.8.25-1.6.38-2.38.38a6.52 6.52 0 0 1-5.06-2.3 7.52 7.52 0 0 1-1.94-5.04Zm29.41-4.1h-4.32V59h-3.28V47.68h-4.34V44.8h11.94v2.88Zm7.9-2.88h3.53l4.88 14.2h-3.36l-1.1-3.18h-4.42L396.78 59h-3.36l4.9-14.2Zm3.41 8.76-1.66-5.46-1.7 5.46h3.36Zm22.14 1.8c0 .81-.22 1.5-.66 2.04-.43.53-1 .93-1.74 1.2-.73.27-1.54.4-2.42.4h-6.92V44.8h7.9c.67 0 1.24.18 1.72.54.5.35.87.8 1.12 1.36a3.84 3.84 0 0 1-.12 3.66c-.34.6-.85 1.05-1.52 1.36.81.24 1.45.67 1.92 1.28.48.61.72 1.4.72 2.36Zm-3.34-.66c0-.3-.06-.57-.18-.8a1.42 1.42 0 0 0-.48-.56 1.06 1.06 0 0 0-.68-.22h-3.78v3.1h3.64a1.5 1.5 0 0 0 1.48-1.52Zm-5.12-7.1v2.94h3.22a1.38 1.38 0 0 0 1.18-.64c.13-.23.2-.5.2-.84 0-.32-.06-.59-.18-.8a1.1 1.1 0 0 0-.44-.48c-.19-.12-.4-.18-.64-.18h-3.34ZM429.9 59V44.8h3.28v9.54l6.12-9.54h3.06V59h-3.28v-9.48L433.03 59h-3.14Zm30.48 0v-8.46l-3.06 6.16h-1.8l-3.06-6.16V59h-3.28V44.8h3.56l3.67 7.42 3.7-7.42h3.54V59h-3.27Zm18.67 0V44.8h6.06a4.49 4.49 0 0 1 3.34 1.52 5 5 0 0 1 1.3 3.3c0 .81-.2 1.59-.58 2.32-.37.73-.9 1.33-1.58 1.8-.67.45-1.46.68-2.38.68h-2.88V59h-3.28Zm3.28-7.44H485c.25 0 .49-.07.7-.22.21-.15.39-.37.52-.66.13-.3.2-.65.2-1.08 0-.44-.08-.8-.24-1.08a1.44 1.44 0 0 0-1.3-.84h-2.56v3.88Zm23.16 4.56V59h-9.98V44.8h9.8v2.88h-6.52v2.76h5.6v2.66h-5.6v3.02h6.7Zm5.2 5.6v-5.6h.8c.34 0 .64-.13.9-.4.26-.28.49-.7.67-1.28.19-.59.34-1.33.44-2.24.11-.92.18-2.02.22-3.3l.12-4.1h9.84v11.32h1.94v5.6h-2.88V59h-9.2v2.72h-2.86Zm4.63-5.6h5.08v-8.44h-3.58l-.04 1.68a32.9 32.9 0 0 1-.2 3.16c-.09.88-.24 1.62-.44 2.22a3.4 3.4 0 0 1-.82 1.38ZM531.65 59V44.8h3.26v5.5h1.12l3.96-5.5h3.64l-5.08 6.86 5.52 7.34h-3.98l-4.16-5.72h-1.02V59h-3.26Zm18.2 0V44.8h3.28v9.54l6.12-9.54h3.06V59h-3.28v-9.48L552.99 59h-3.14Zm19.35 0V44.8h3.28v9.54l6.12-9.54h3.06V59h-3.28v-9.48L572.34 59h-3.14Zm6.24-14.96c-.79 0-1.49-.13-2.1-.4a3.48 3.48 0 0 1-1.4-1.12 2.77 2.77 0 0 1-.5-1.62h2.18c0 .4.15.76.46 1.08.3.3.76.46 1.36.46.6 0 1.05-.15 1.36-.44.32-.3.48-.66.48-1.1h2.18c0 .6-.17 1.14-.5 1.62-.34.47-.8.84-1.42 1.12-.6.27-1.3.4-2.1.4Zm31.93 3.64h-4.32V59h-3.28V47.68h-4.34V44.8h11.94v2.88Zm11.55 11.44c-1.07 0-2.03-.2-2.9-.6a7.35 7.35 0 0 1-2.22-1.64 7.41 7.41 0 0 1-1.4-7.7c.36-.85.85-1.61 1.48-2.28a6.97 6.97 0 0 1 7.96-1.56c.87.4 1.6.95 2.22 1.64a7.44 7.44 0 0 1 1.42 7.66 7.4 7.4 0 0 1-3.74 3.9c-.85.39-1.8.58-2.82.58Zm-3.7-7.2c0 .55.08 1.08.24 1.6.16.5.4.96.7 1.36a3.45 3.45 0 0 0 2.78 1.32c.63 0 1.17-.12 1.64-.36a3.5 3.5 0 0 0 1.16-1 5.34 5.34 0 0 0 .68-4.54c-.16-.5-.4-.96-.72-1.36a3.3 3.3 0 0 0-2.76-1.3c-.63 0-1.17.12-1.64.36-.45.24-.84.57-1.16.98-.3.4-.54.86-.7 1.38-.15.5-.22 1.03-.22 1.56Zm28.41 3.44c0 .81-.22 1.5-.65 2.04-.43.53-1.01.93-1.75 1.2-.73.27-1.53.4-2.41.4h-6.93V44.8h7.9c.67 0 1.25.18 1.73.54.49.35.86.8 1.12 1.36a3.84 3.84 0 0 1-.12 3.66c-.35.6-.86 1.05-1.52 1.36.8.24 1.45.67 1.91 1.28.49.61.73 1.4.73 2.36Zm-3.34-.66c0-.3-.05-.57-.17-.8a1.42 1.42 0 0 0-.49-.56 1.07 1.07 0 0 0-.67-.22h-3.79v3.1h3.65a1.5 1.5 0 0 0 1.48-1.52Zm-5.12-7.1v2.94h3.23a1.38 1.38 0 0 0 1.18-.64c.13-.23.2-.5.2-.84 0-.32-.06-.59-.18-.8a1.1 1.1 0 0 0-.45-.48c-.18-.12-.4-.18-.63-.18h-3.35Zm17.67-2.8h3.53l4.88 14.2h-3.36l-1.1-3.18h-4.41L651.28 59h-3.36l4.9-14.2Zm3.41 8.76-1.65-5.46-1.7 5.46h3.36Zm10.4 5.44V44.8h6.06a4.48 4.48 0 0 1 3.34 1.52 5 5 0 0 1 1.3 3.3c0 .81-.19 1.59-.58 2.32-.37.73-.9 1.33-1.58 1.8-.66.45-1.46.68-2.38.68h-2.88V59h-3.28Zm3.28-7.44h2.68c.26 0 .49-.07.7-.22.22-.15.39-.37.52-.66.14-.3.2-.65.2-1.08 0-.44-.08-.8-.24-1.08a1.44 1.44 0 0 0-1.3-.84h-2.56v3.88ZM691.84 59V44.8h11.82V59h-3.28V47.68h-5.26V59h-3.28Zm24.83.12c-1.07 0-2.03-.2-2.9-.6a7.35 7.35 0 0 1-2.22-1.64 7.41 7.41 0 0 1-1.4-7.7c.36-.85.85-1.61 1.48-2.28a6.97 6.97 0 0 1 7.96-1.56c.87.4 1.6.95 2.22 1.64a7.44 7.44 0 0 1 1.42 7.66 7.4 7.4 0 0 1-3.74 3.9c-.85.39-1.8.58-2.82.58Zm-3.7-7.2c0 .55.08 1.08.24 1.6.16.5.4.96.7 1.36a3.45 3.45 0 0 0 2.78 1.32c.63 0 1.17-.12 1.64-.36a3.5 3.5 0 0 0 1.16-1 5.34 5.34 0 0 0 .68-4.54c-.16-.5-.4-.96-.72-1.36a3.3 3.3 0 0 0-2.76-1.3c-.63 0-1.17.12-1.64.36-.45.24-.84.57-1.16.98-.3.4-.54.86-.7 1.38-.15.5-.22 1.03-.22 1.56Zm15.88 9.8v-5.6h.8c.34 0 .64-.13.9-.4.26-.28.49-.7.68-1.28.18-.59.33-1.33.43-2.24.11-.92.19-2.02.23-3.3l.12-4.1h9.84v11.32h1.93v5.6h-2.88V59h-9.2v2.72h-2.86Zm4.63-5.6h5.09v-8.44h-3.59l-.03 1.68c-.03 1.21-.1 2.27-.2 3.16-.1.88-.25 1.62-.45 2.22a3.4 3.4 0 0 1-.81 1.38Zm29.93 3.02a7.32 7.32 0 0 1-3.32-.74 5.9 5.9 0 0 1-2.32-2.06l2.46-1.52c.32.5.74.89 1.26 1.18a3.9 3.9 0 0 0 1.84.42c.78 0 1.36-.16 1.72-.48.36-.32.54-.73.54-1.22 0-.33-.08-.63-.24-.88a1.38 1.38 0 0 0-.72-.58 3 3 0 0 0-1.24-.22h-1.82v-2.46h1.84c.41 0 .75-.06 1.02-.18.26-.13.46-.3.58-.52.13-.23.2-.49.2-.78 0-.3-.08-.55-.22-.76-.14-.23-.35-.4-.64-.52a3.96 3.96 0 0 0-3.04.22 3 3 0 0 0-1.18 1.08l-2.38-1.68a6.86 6.86 0 0 1 2.22-1.98c.89-.5 2.02-.76 3.38-.76 1.05 0 1.95.15 2.7.44.74.3 1.32.73 1.72 1.32.41.57.62 1.29.62 2.14 0 .61-.16 1.2-.46 1.78-.3.56-.79 1-1.48 1.32.78.23 1.39.64 1.82 1.24.42.6.64 1.3.64 2.1 0 .9-.24 1.65-.72 2.26a4.54 4.54 0 0 1-1.96 1.38c-.83.3-1.77.46-2.82.46Zm14.84-14.34h3.54l4.88 14.2h-3.36l-1.1-3.18h-4.42L776.71 59h-3.36l4.9-14.2Zm3.42 8.76-1.66-5.46-1.7 5.46h3.36ZM792.13 59V44.8h3.26v5.5h1.12l3.96-5.5h3.64l-5.08 6.86 5.52 7.34h-3.98l-4.16-5.72h-1.02V59h-3.26Zm21.7-14.2h3.54l4.88 14.2h-3.36l-1.1-3.18h-4.42L812.3 59h-3.36l4.9-14.2Zm3.42 8.76-1.66-5.46-1.7 5.46h3.36Zm15.34 5.58a7.32 7.32 0 0 1-3.32-.74 5.89 5.89 0 0 1-2.32-2.06l2.46-1.52c.32.5.74.89 1.26 1.18a3.9 3.9 0 0 0 1.84.42c.79 0 1.36-.16 1.72-.48.36-.32.54-.73.54-1.22 0-.33-.08-.63-.24-.88a1.4 1.4 0 0 0-.72-.58 3 3 0 0 0-1.24-.22h-1.82v-2.46h1.84c.41 0 .75-.06 1.02-.18.27-.13.46-.3.58-.52.13-.23.2-.49.2-.78 0-.3-.07-.55-.22-.76-.13-.23-.35-.4-.64-.52a3.96 3.96 0 0 0-3.04.22 3 3 0 0 0-1.18 1.08l-2.38-1.68a6.86 6.86 0 0 1 2.22-1.98c.9-.5 2.02-.76 3.38-.76a7.4 7.4 0 0 1 2.7.44c.75.3 1.32.73 1.72 1.32.41.57.62 1.29.62 2.14 0 .61-.15 1.2-.46 1.78-.3.56-.79 1-1.48 1.32.79.23 1.4.64 1.82 1.24.43.6.64 1.3.64 2.1 0 .9-.24 1.65-.72 2.26a4.54 4.54 0 0 1-1.96 1.38c-.83.3-1.77.46-2.82.46Z" fill="#000"/><circle cx="1097.5" cy="50" r="20" fill="#DCDCDC" fill-opacity=".5"/><g opacity=".3" clip-path="url(#b)" fill="#000"><path d="M1098 44h-2v2h2v-2ZM1098 48h-2v8h2v-8Z"/></g><defs><clipPath id="a"><path fill="#fff" transform="translate(39 35)" d="M0 0h47v31H0z"/></clipPath><clipPath id="b"><path fill="#fff" transform="translate(1096 44)" d="M0 0h2v12H0z"/></clipPath></defs></svg>