<svg width="160" height="253" fill="none" xmlns="http://www.w3.org/2000/svg"><path fill="#FFE17F" d="M0 0h160v160H0z"/><path d="M11.79 207.72c0 .74-.2 1.35-.6 1.84-.38.48-.9.84-1.56 1.08-.66.24-1.39.36-2.18.36H1.22v-12.78h7.11c.6 0 1.12.16 1.55.49.45.3.78.72 1.01 1.22a3.46 3.46 0 0 1-.1 3.3c-.32.53-.78.94-1.38 1.22.74.21 1.31.6 1.73 1.15.43.55.65 1.26.65 2.12Zm-3-.59c0-.28-.06-.52-.17-.72-.1-.22-.25-.38-.43-.5a.96.96 0 0 0-.61-.2h-3.4v2.79h3.27a1.35 1.35 0 0 0 1.33-1.37Zm-4.61-6.39v2.65h2.9a1.24 1.24 0 0 0 1.06-.58c.12-.2.18-.46.18-.76 0-.28-.06-.52-.17-.72a1 1 0 0 0-.4-.43c-.16-.1-.35-.16-.57-.16h-3ZM12.95 211v-9.45h2.88v5.62l3.66-5.62h2.62V211h-2.88v-5.45L15.6 211h-2.65Zm16.76.18c-.7 0-1.32-.15-1.85-.45a3.38 3.38 0 0 1-1.24-1.26v5.36h-2.88v-13.28h2.5v1.53c.35-.54.78-.96 1.31-1.26.53-.3 1.15-.45 1.86-.45a4.3 4.3 0 0 1 3.15 1.42c.4.45.7.96.91 1.55a5.88 5.88 0 0 1-.2 4.43 4.32 4.32 0 0 1-1.45 1.76c-.61.43-1.32.65-2.1.65Zm-.97-2.43c.31 0 .6-.07.85-.2a2.37 2.37 0 0 0 1.11-1.35c.11-.31.16-.63.16-.97a2.46 2.46 0 0 0-.64-1.71c-.2-.23-.45-.4-.72-.52a2.23 2.23 0 0 0-1.5-.1 2.41 2.41 0 0 0-1.39 1.2v1.96c.14.32.31.61.53.86.21.25.46.46.74.61.27.15.56.22.86.22Zm8.27 2.25v-6.93h-2.86v-2.52h8.6v2.52H39.9V211h-2.88Zm8.14 4.14c-.27 0-.55-.03-.85-.09a12.2 12.2 0 0 1-1.02-.27l.41-2.38c.23.09.44.15.63.2.2.05.38.07.54.07.31 0 .58-.1.8-.28.2-.18.37-.47.48-.85l.16-.56-3.64-9.43h2.97l2.2 6.5 1.87-6.5h2.72l-3.55 10.7a4.2 4.2 0 0 1-2.14 2.53c-.49.24-1.02.36-1.58.36Zm7.22-6.97c0-.62.17-1.17.52-1.63.35-.47.83-.84 1.44-1.1a5.07 5.07 0 0 1 2.1-.42 5.95 5.95 0 0 1 2.11.38V205c0-.52-.15-.91-.47-1.19-.3-.28-.78-.41-1.42-.41-.53 0-1.02.09-1.5.27-.45.18-.93.43-1.45.77l-.86-1.84a7.52 7.52 0 0 1 4.1-1.22c1.42 0 2.51.34 3.3 1.03.79.67 1.18 1.65 1.18 2.93v2.47c0 .28.04.49.13.6.1.12.26.18.48.2v2.4a8 8 0 0 1-1.22.14c-.54 0-.95-.1-1.24-.32a1.42 1.42 0 0 1-.52-.88l-.06-.42a4.16 4.16 0 0 1-3.33 1.66 3.6 3.6 0 0 1-1.7-.4c-.48-.26-.87-.62-1.16-1.08a2.8 2.8 0 0 1-.43-1.53Zm5.72.36c.13-.1.24-.22.33-.36a.7.7 0 0 0 .12-.37v-.85a3.8 3.8 0 0 0-.8-.22 3.98 3.98 0 0 0-.82-.09c-.53 0-.96.12-1.31.36-.35.23-.52.54-.52.92 0 .22.06.42.18.6s.28.32.48.43c.22.1.47.16.76.16a2.45 2.45 0 0 0 1.58-.58Zm4.45 2.61v-2.55c.28 0 .54-.06.75-.18.22-.12.4-.32.56-.6.17-.27.3-.67.4-1.18.1-.52.16-1.18.2-1.98l.12-3.1h7.47V211h-2.88v-6.93h-2.03l-.04.88c-.06 1.2-.2 2.2-.4 3-.19.8-.47 1.43-.84 1.9a3.2 3.2 0 0 1-1.37.99c-.54.2-1.19.3-1.94.3ZM73.7 211v-9.45h2.88v2.83h2.04c1.14 0 2.01.3 2.63.9.62.58.93 1.36.93 2.32 0 .67-.13 1.26-.4 1.78-.25.52-.62.92-1.13 1.2-.49.28-1.1.42-1.85.42h-5.1Zm2.88-2.18h1.75c.26 0 .48-.05.65-.14.18-.11.31-.25.4-.43a1.55 1.55 0 0 0 0-1.23.88.88 0 0 0-.38-.43c-.17-.1-.4-.16-.69-.16h-1.73v2.4Zm6.64 2.18v-9.45h2.88v3.42h3.23v-3.42h2.88V211h-2.88v-3.65H86.1V211h-2.88Zm10.04-2.83c0-.62.17-1.17.52-1.63.35-.47.83-.84 1.44-1.1a5.07 5.07 0 0 1 2.1-.42 5.95 5.95 0 0 1 2.11.38V205c0-.52-.16-.91-.47-1.19-.31-.28-.78-.41-1.42-.41-.53 0-1.03.09-1.5.27-.45.18-.94.43-1.45.77l-.87-1.84a7.52 7.52 0 0 1 4.1-1.22c1.42 0 2.52.34 3.3 1.03.8.67 1.19 1.65 1.19 2.93v2.47c0 .28.04.49.13.6.1.12.25.18.48.2v2.4a8 8 0 0 1-1.22.14c-.54 0-.96-.1-1.24-.32a1.42 1.42 0 0 1-.53-.88l-.05-.42a4.16 4.16 0 0 1-3.33 1.66 3.6 3.6 0 0 1-1.7-.4c-.48-.26-.87-.62-1.16-1.08a2.8 2.8 0 0 1-.43-1.53Zm5.72.36c.13-.1.24-.22.32-.36a.7.7 0 0 0 .13-.37v-.85a3.8 3.8 0 0 0-.81-.22 3.98 3.98 0 0 0-.81-.09c-.53 0-.97.12-1.31.36-.35.23-.53.54-.53.92 0 .22.06.42.18.6s.29.32.49.43c.22.1.47.16.76.16a2.45 2.45 0 0 0 1.58-.58Zm4.68 2.47 2.23-3.62c-.54-.18-.96-.49-1.26-.93a3.15 3.15 0 0 1-.45-1.77c0-.65.14-1.2.43-1.67.3-.48.71-.85 1.23-1.1.52-.26 1.12-.4 1.8-.4h4.84V211h-2.88v-3.11h-.96l-1.83 3.11h-3.15Zm4.37-5.15h1.57v-2.16h-1.53c-.36 0-.64.1-.85.3-.19.2-.29.45-.29.76 0 .33.1.6.27.8.2.2.47.3.83.3ZM6.97 235.18c-.71 0-1.33-.15-1.86-.45a3.38 3.38 0 0 1-1.24-1.26v5.36H.99v-13.28h2.5v1.53c.35-.54.79-.96 1.32-1.26.52-.3 1.14-.45 1.85-.45a4.3 4.3 0 0 1 3.15 1.42c.4.45.7.96.92 1.55.21.59.32 1.22.32 1.9 0 .94-.17 1.78-.52 2.53a4.32 4.32 0 0 1-1.46 1.76c-.61.43-1.31.65-2.1.65Zm-.98-2.43c.32 0 .6-.07.85-.2a2.37 2.37 0 0 0 1.12-1.35c.1-.31.16-.63.16-.97a2.46 2.46 0 0 0-.65-1.71c-.2-.23-.44-.4-.72-.52a2.23 2.23 0 0 0-1.5-.1c-.19.07-.37.16-.55.28a2.41 2.41 0 0 0-.83.93v1.95c.13.32.3.61.52.86.22.25.46.46.74.61.28.15.56.22.86.22Zm10.67 2.43a4.98 4.98 0 0 1-3.74-1.44 4.6 4.6 0 0 1-1-1.53 5.2 5.2 0 0 1 .25-4.32 4.7 4.7 0 0 1 1.76-1.82 5.1 5.1 0 0 1 2.73-.7 5.1 5.1 0 0 1 2.72.68 4.6 4.6 0 0 1 1.73 1.8 4.95 4.95 0 0 1 .52 3.32h-6.98c.03.42.15.77.34 1.06a2.07 2.07 0 0 0 1.76.88c.43 0 .84-.1 1.2-.3.4-.21.66-.49.8-.83l2.45.68c-.24.5-.58.93-1.03 1.31-.43.38-.95.67-1.55.89-.58.21-1.24.32-1.96.32Zm-2.09-5.78h4.1c-.04-.4-.15-.74-.33-1.02a2 2 0 0 0-1.71-.94c-.38 0-.71.08-1.01.25-.29.16-.52.39-.7.69-.18.28-.3.63-.35 1.02Zm7.48 2.77c0-.62.18-1.17.52-1.63.35-.47.83-.84 1.45-1.1a5.07 5.07 0 0 1 2.1-.42 5.95 5.95 0 0 1 2.1.38V229c0-.52-.15-.91-.46-1.19-.31-.28-.79-.41-1.42-.41-.53 0-1.03.09-1.5.27-.45.18-.94.43-1.45.77l-.87-1.84a7.52 7.52 0 0 1 4.1-1.22c1.42 0 2.52.34 3.3 1.03.8.67 1.19 1.65 1.19 2.93v2.47c0 .28.04.49.12.6.1.12.26.18.49.2v2.4a8 8 0 0 1-1.22.14c-.55 0-.96-.1-1.25-.32a1.42 1.42 0 0 1-.52-.88l-.05-.42a4.16 4.16 0 0 1-3.33 1.66 3.6 3.6 0 0 1-1.7-.4c-.49-.26-.88-.62-1.16-1.08a2.8 2.8 0 0 1-.44-1.53Zm5.73.36c.13-.1.24-.22.32-.36a.7.7 0 0 0 .13-.37v-.85a3.8 3.8 0 0 0-.81-.22 3.98 3.98 0 0 0-.81-.09c-.53 0-.97.12-1.32.36-.34.23-.52.54-.52.92 0 .22.06.42.18.6s.28.32.49.43c.21.1.46.16.75.16a2.45 2.45 0 0 0 1.59-.58Zm4.44 2.61v-2.55c.29 0 .54-.06.76-.18.21-.12.4-.32.56-.6.16-.27.3-.67.4-1.18.09-.52.15-1.18.19-1.98l.13-3.1h7.47V235h-2.88v-6.93H36.8l-.03.88c-.06 1.2-.2 2.2-.4 3-.2.8-.47 1.43-.85 1.9a3.2 3.2 0 0 1-1.36.99c-.54.2-1.2.3-1.95.3ZM43.4 235v-9.45h2.88v2.83h2.03c1.14 0 2.02.3 2.63.9.63.58.94 1.36.94 2.32 0 .67-.13 1.26-.4 1.78-.25.52-.63.92-1.13 1.2-.5.28-1.11.42-1.86.42H43.4Zm2.88-2.18h1.75c.26 0 .48-.05.64-.14.18-.11.32-.25.4-.43a1.55 1.55 0 0 0 0-1.23.88.88 0 0 0-.38-.43c-.17-.1-.4-.16-.68-.16h-1.73v2.4Zm6.64 2.18v-9.45h2.88v3.42H59v-3.42h2.88V235h-2.88v-3.65H55.8V235H52.9Zm15.13.18c-.8 0-1.53-.13-2.16-.4a4.64 4.64 0 0 1-2.58-2.64 5.33 5.33 0 0 1 0-3.73 4.75 4.75 0 0 1 2.58-2.64c.63-.27 1.35-.4 2.16-.4.8 0 1.51.13 2.14.4a4.64 4.64 0 0 1 2.57 2.64 5.13 5.13 0 0 1-.99 5.3c-.43.45-.96.81-1.58 1.07-.63.27-1.34.4-2.14.4Zm-2.11-4.9c0 .5.09.93.27 1.3.2.37.44.66.76.86.3.2.67.31 1.08.31.4 0 .75-.1 1.06-.3.32-.22.57-.52.75-.89.18-.37.27-.8.27-1.28 0-.49-.09-.92-.27-1.3a2.05 2.05 0 0 0-.75-.86 1.9 1.9 0 0 0-1.06-.3c-.41 0-.77.1-1.08.3-.32.2-.57.5-.76.87-.18.37-.27.8-.27 1.3Zm12.75 4.9c-.8 0-1.52-.13-2.14-.4a4.84 4.84 0 0 1-1.6-1.08 4.75 4.75 0 0 1-1-1.56 5.13 5.13 0 0 1 .26-4.29c.4-.74.99-1.34 1.74-1.8a5.2 5.2 0 0 1 2.74-.68c1.08 0 2 .23 2.74.7a4.35 4.35 0 0 1 1.69 1.8l-2.81.85a1.87 1.87 0 0 0-1.64-.9c-.4 0-.75.1-1.08.3-.31.2-.56.49-.75.85-.18.36-.27.8-.27 1.3 0 .49.1.92.28 1.3.2.36.45.66.76.87a1.99 1.99 0 0 0 1.73.2 1.98 1.98 0 0 0 .99-.83l2.8.87c-.22.48-.55.91-.98 1.3-.42.37-.92.66-1.5.88-.57.21-1.23.32-1.96.32Zm7.51-.18v-6.93h-2.86v-2.52h8.6v2.52h-2.86V235H86.2Zm6.62 0v-9.45h2.88v2.83h2.04c1.14 0 2.01.3 2.63.9.62.58.93 1.36.93 2.32 0 .67-.13 1.26-.4 1.78-.25.52-.63.92-1.13 1.2-.5.28-1.1.42-1.85.42h-5.1Zm2.88-2.18h1.75c.26 0 .48-.05.65-.14.18-.11.3-.25.4-.43a1.55 1.55 0 0 0 0-1.23.88.88 0 0 0-.39-.43c-.16-.1-.4-.16-.68-.16H95.7v2.4Z" fill="#000"/><path d="M116.13 86.64V74c0-1.3 1.05-2.37 2.34-2.37l8.32 1.58v-8.19c0-2.35-1.7-3.43-4.2-4.26L99.4 54.17c1.62 1.4 1.9 2.05 1.9 4.4v45.21c0 2.36-.46 4.07-1.97 5.21l23.26-7.06c2.4-.84 4.2-4.22 4.2-6.58v-7.91l-8.32 1.57a2.35 2.35 0 0 1-2.34-2.37Z" fill="#363636"/><path d="m127.13 74.98-7.6-1.45c-1 0-1.82.83-1.82 1.86v9.86c0 1.03.81 1.86 1.82 1.86l7.6-1.44c1.15-.41 1.82-.82 1.82-1.85v-6.99c0-1.02-.76-1.5-1.82-1.85ZM99.17 58.48c0-5.08-4.23-4.46-4.23-4.46s-57.1 4.72-60.1 5.13c-3 .4-2.84 4.38-2.84 4.38v36.28c0 3.75 2.6 3.75 2.6 3.75l16.48 1.4L59.2 93.3s1.11-1.83 2.5-1.83c1.4 0 2.44 1.86 2.44 1.86l9.06 13.52s18.9 1.91 22.52 1.91c3.63 0 3.44-5.02 3.44-5.02V58.48ZM44.98 91.2c-3.7 0-6.7-4.6-6.7-10.27 0-5.68 3-10.28 6.7-10.28s6.7 4.6 6.7 10.28c0 5.67-3 10.27-6.7 10.27Zm36.16 1.43c-4.66 0-8.44-5.24-8.44-11.7 0-6.47 3.78-11.7 8.44-11.7s8.44 5.23 8.44 11.7c0 6.46-3.78 11.7-8.44 11.7Z" fill="#363636"/></svg>