<svg width="48" height="48" fill="none" xmlns="http://www.w3.org/2000/svg"><g filter="url(#a)"><circle cx="24" cy="20" r="20" fill="#fff" fill-opacity=".3"/><g clip-path="url(#b)"><path d="m29.44 14.07-11.82 4.56c-.8.33-.8.78-.14.98l3.03.94 7.02-4.43c.33-.2.64-.09.39.13l-5.7 5.13-.2 3.13c.3 0 .44-.14.61-.3l1.48-1.44 3.06 2.27c.57.31.97.15 1.12-.53l2-9.48c.21-.83-.3-1.2-.85-.96Z" fill="#444"/></g></g><defs><clipPath id="b"><path fill="#fff" transform="translate(17 14)" d="M0 0h14v12H0z"/></clipPath><filter id="a" x="0" y="0" width="48" height="48" filterUnits="userSpaceOnUse" color-interpolation-filters="sRGB"><feFlood flood-opacity="0" result="BackgroundImageFix"/><feColorMatrix in="SourceAlpha" values="0 0 0 0 0 0 0 0 0 0 0 0 0 0 0 0 0 0 127 0" result="hardAlpha"/><feOffset dy="4"/><feGaussianBlur stdDeviation="2"/><feComposite in2="hardAlpha" operator="out"/><feColorMatrix values="0 0 0 0 0 0 0 0 0 0 0 0 0 0 0 0 0 0 0.25 0"/><feBlend in2="BackgroundImageFix" result="effect1_dropShadow_70_1308"/><feBlend in="SourceGraphic" in2="effect1_dropShadow_70_1308" result="shape"/></filter></defs></svg>